<svg id="Layer_1" data-name="Layer 1" xmlns="http://www.w3.org/2000/svg" viewBox="0 0 88 88"><defs><style>.cls-1{fill:#e21;}</style></defs><path class="cls-1" d="M24,6A18,18,0,0,0,6,24V76A18,18,0,0,0,24,94H76A18,18,0,0,0,94,76V24A18,18,0,0,0,76,6Zm0,4H76A13.91,13.91,0,0,1,90,24V76A13.91,13.91,0,0,1,76,90H24A13.91,13.91,0,0,1,10,76V24A13.91,13.91,0,0,1,24,10Zm57,6a3,3,0,1,0,3,3A3,3,0,0,0,81,16ZM50,18A32,32,0,1,0,82,50,32,32,0,0,0,50,18Zm2.16,4.09L55,32.69a18.32,18.32,0,0,0-8.81-.28L35.31,26.12C41.32,23.15,46.27,21.71,52.16,22.06Zm4.31.66a28,28,0,0,1,14.81,9l-5.53,9.56a18,18,0,0,0-6-6.43Zm-24.69,6,9.53,5.5a18.13,18.13,0,0,0-6.4,6L22.75,43.5A27.91,27.91,0,0,1,31.78,28.72Zm42.06,6.59c3,5.86,4.43,11.15,4.07,16.85L67.25,55a18.47,18.47,0,0,0,.34-8.84ZM50,36A14,14,0,1,1,36,50,14,14,0,0,1,50,36Zm0,8a6,6,0,1,0,6,6A6,6,0,0,0,50,44ZM32.72,45a18.32,18.32,0,0,0-.28,8.81L26.16,64.62c-3-5.84-4.41-11.12-4.07-16.81Zm44.53,11.5a28,28,0,0,1-9,14.78l-9.53-5.5a18.13,18.13,0,0,0,6.4-6Zm-43,2.19a18,18,0,0,0,6,6.43l3.25,12.13a28,28,0,0,1-14.81-9ZM45,67.25a18.85,18.85,0,0,0,8.84.31l10.85,6.28c-5.86,3-11.18,4.39-16.88,4Z" transform="translate(-6 -6)"/></svg>