<svg id="Layer_1" data-name="Layer 1" xmlns="http://www.w3.org/2000/svg" viewBox="0 0 464 218.77"><defs><style>.cls-1{fill:#e21;}</style></defs><path class="cls-1" d="M401.26,318.25l-25.06-12.5A131.35,131.35,0,0,0,383.66,207l26.65-8.59a159.38,159.38,0,0,1-9.05,119.81Z" transform="translate(-24 -146.62)"/><path class="cls-1" d="M455.1,365.21l-24-14.49a200,200,0,0,0,8.4-191.58l25.13-12.35a228,228,0,0,1-9.58,218.42Z" transform="translate(-24 -146.62)"/><path class="cls-1" d="M110.83,318.25a159.43,159.43,0,0,1-9.21-119.79L128.28,207a131.42,131.42,0,0,0,7.59,98.7Z" transform="translate(-24 -146.62)"/><path class="cls-1" d="M57.1,365.38a228,228,0,0,1-9.78-218.76L72.45,159A200,200,0,0,0,81,350.85Z" transform="translate(-24 -146.62)"/><path class="cls-1" d="M256,169.88c-43,0-77.92,34.63-77.92,77.2s35,77.2,77.92,77.2,77.92-34.63,77.92-77.2S299,169.88,256,169.88Zm0,102.35a25.16,25.16,0,1,1,25.39-25.15A25.3,25.3,0,0,1,256,272.23Z" transform="translate(-24 -146.62)"/></svg>