<svg id="Layer_1" data-name="Layer 1" xmlns="http://www.w3.org/2000/svg" viewBox="0 0 89.75 70"><defs><style>.cls-1{fill:#e21;}</style></defs><path class="cls-1" d="M97.39,50a6,6,0,0,0-4.52-2h-2a6.06,6.06,0,0,0-5.95,5.22,23,23,0,0,1-10.38,16.1A35,35,0,1,0,44.13,87h18a37,37,0,0,0,36.7-32.3A5.9,5.9,0,0,0,97.39,50ZM13.13,52a31,31,0,1,1,31,31A31,31,0,0,1,13.13,52Zm49,31H60.35a35.59,35.59,0,0,0,9.3-7.08,28.27,28.27,0,0,0,4.4-1.72l6.43,3.21A32.89,32.89,0,0,1,62.13,83ZM84,74.7l-5.92-3A27.08,27.08,0,0,0,85,64.38l5.85,2A33.39,33.39,0,0,1,84,74.7ZM94.86,54.2a33,33,0,0,1-2.27,8.51L86.87,60.8a26.69,26.69,0,0,0,2-7,2,2,0,0,1,2-1.77h2a2,2,0,0,1,1.52.69A1.87,1.87,0,0,1,94.86,54.2Z" transform="translate(-9.13 -17)"/><path class="cls-1" d="M44.13,27a8,8,0,1,0,8,8A8,8,0,0,0,44.13,27Zm0,12a4,4,0,1,1,4-4A4,4,0,0,1,44.13,39Z" transform="translate(-9.13 -17)"/><path class="cls-1" d="M44.13,61a8,8,0,1,0,8,8A8,8,0,0,0,44.13,61Zm0,12a4,4,0,1,1,4-4A4,4,0,0,1,44.13,73Z" transform="translate(-9.13 -17)"/><path class="cls-1" d="M69.13,52a8,8,0,1,0-8,8A8,8,0,0,0,69.13,52Zm-8,4a4,4,0,1,1,4-4A4,4,0,0,1,61.13,56Z" transform="translate(-9.13 -17)"/><path class="cls-1" d="M27.13,44a8,8,0,1,0,8,8A8,8,0,0,0,27.13,44Zm0,12a4,4,0,1,1,4-4A4,4,0,0,1,27.13,56Z" transform="translate(-9.13 -17)"/><circle class="cls-1" cx="35" cy="35" r="2"/></svg>